<?xml version="1.0" encoding="UTF-8"?>
<svg id="Layer_1" data-name="Layer 1" xmlns="http://www.w3.org/2000/svg" viewBox="0 0 382 404">
  <defs>
    <style>
      .cls-1 {
        fill: #3b82f6;
      }
    </style>
  </defs>
  <path class="cls-1" d="m328.64,101.84c.09,2.22-1.06,3.72-2.15,5.25-5.3,7.4-10.52,14.85-15.94,22.16-1.57,2.11-1.61,3.69-.32,5.98,4.76,8.48,8.45,17.45,11.37,26.73,1.2,3.8-.04,6.84-3.19,8-3.35,1.24-6.69-.27-8.05-4.06-2.99-8.32-6.11-16.56-10.32-24.37-5.83-10.83-7.16-8.28,1.29-19.88,4.18-5.74,8.2-11.6,12.42-17.31,1.15-1.56,1.3-2.54-.03-4.15-6.93-8.4-14.56-16.05-22.99-22.96-1.81-1.48-2.84-1.13-4.44.04-7.45,5.44-15.02,10.72-22.44,16.18-2.96,2.18-5.67,2.51-8.92.57-11.06-6.58-22.77-11.66-35.35-14.6-3.35-.78-5.27-2.65-5.8-6.32-1.3-9.08-2.96-18.11-4.44-27.16-.39-2.4-1.15-3.68-4.15-3.91-10.35-.78-20.65-.83-31,.05-2.67.23-3.34,1.41-3.69,3.59-1.49,9.3-3.05,18.59-4.53,27.9-.46,2.89-1.92,4.77-4.81,5.5-13.23,3.34-25.72,8.43-37.39,15.54-2.5,1.52-4.97.87-7.3-.82-7.57-5.48-15.24-10.81-22.75-16.38-1.96-1.46-3.19-1.47-5.07.11-8.07,6.74-15.42,14.16-22.19,22.19-1.58,1.87-1.51,3.17-.06,5.12,5.43,7.3,10.58,14.81,15.98,22.13,2.28,3.1,2.54,5.92.48,9.26-6.7,10.88-11.49,22.58-14.44,35.03-.79,3.34-2.67,5.32-6.33,5.85-8.72,1.28-17.38,2.95-26.1,4.27-3.15.47-4.82,1.23-5.07,5.09-.66,10.23-.79,20.4.2,30.61.22,2.29,1.14,2.95,3.09,3.26,9.32,1.48,18.61,3.09,27.94,4.51,3.23.49,5.23,2.1,6.01,5.24,3.21,13.01,8.24,25.26,15.29,36.68,1.64,2.65,1.06,5.2-.71,7.65-5.26,7.27-10.36,14.67-15.77,21.82-1.89,2.5-2.11,4.19.02,6.66,6.53,7.58,13.63,14.55,21.13,21.16,2.15,1.9,3.7,1.91,6.05.14,7.07-5.32,14.42-10.26,21.53-15.53,3.19-2.37,6.01-2.69,9.57-.61,7.42,4.32,15.21,7.92,23.45,10.5,3.69,1.16,5.28,4.19,4.18,7.51-1.15,3.47-4.03,5.04-7.67,3.95-7.16-2.13-14.08-4.95-20.59-8.62-2.53-1.42-4.35-1.41-6.68.33-7.19,5.37-14.54,10.53-21.81,15.79-4.22,3.05-6.27,2.97-10.35-.16-12.13-9.32-22.89-20-32.19-32.16-3.14-4.1-3.27-6.19-.3-10.37,5.34-7.52,10.69-15.03,16.11-22.48,1.3-1.79,1.55-3.19.37-5.31-4.97-8.93-8.96-18.31-11.62-28.2-.51-1.9-1.41-2.71-3.45-3.03-9.68-1.51-19.32-3.32-28.99-4.88-3.72-.6-5.24-2.84-5.73-6.27-2.26-16.02-2.15-32.03.02-48.04.42-3.13,2.14-5.05,5.15-5.57,9.17-1.58,18.34-3.11,27.54-4.5,3.04-.46,4.84-1.32,5.8-4.79,2.63-9.48,6.38-18.59,11.35-27.12,1.16-1.99.91-3.22-.36-4.95-5.46-7.43-10.77-14.98-16.13-22.49-2.96-4.15-2.97-6.3.14-10.39,9.5-12.47,20.59-23.35,33.05-32.84,3.01-2.29,5.82-2.26,8.86-.05,7.77,5.63,15.64,11.11,23.39,16.78,1.65,1.2,2.88,1.33,4.67.32,9.13-5.16,18.77-9.14,28.89-11.92,1.64-.45,2.24-1.28,2.53-3.06,1.56-9.77,3.38-19.5,5.05-29.26.65-3.8,2.92-5.31,6.62-5.81,13.9-1.89,27.81-1.93,41.75-.63,2.1.2,4.22.37,6.28.81,2.77.58,4.72,2.2,5.22,5.16,1.52,9.15,3.1,18.3,4.48,27.47.46,3.04,1.28,4.97,4.78,5.86,9.44,2.39,18.3,6.41,26.79,11.15,2.26,1.26,3.68.99,5.63-.45,7.53-5.54,15.23-10.84,22.79-16.34,3.18-2.31,6.07-2.3,9.18.09,12.34,9.47,23.27,20.34,32.74,32.68,1.22,1.59,2.5,3.14,2.43,5.1Z"/>
  <path class="cls-1" d="m226.71,270.53c7.03,1.78,11.5-1.89,16.16-6.61,18.64-18.9,37.49-37.58,56.56-56.04,3.82-3.7,5.66-7.63,5.69-12.62.02-2.83,1.32-4.71,3.45-6.22,11.16-7.95,22.31-15.92,33.51-23.81,3.56-2.51,5.72-2.28,8.95.8,3.42,3.27,6.79,6.61,10.09,10,3.17,3.25,3.34,5.56.65,9.25-7.99,10.98-16.09,21.87-24.03,32.89-2,2.77-4.73,3.51-7.78,3.63-3.77.15-6.7,1.51-9.46,4.28-20.5,20.58-41.14,41.02-61.8,61.44-1.91,1.89-2.92,3.73-2.76,6.52.24,4.1.11,8.23-.03,12.34-.13,3.96-2.19,6.23-6.01,6.02-3.01-.17-4.83,1.19-6.75,3.1-16.86,16.82-33.79,33.56-50.65,50.38-5.69,5.68-12.2,8.33-20.29,6.45-12.89-2.99-22.46-19.02-18.19-30.57,1.24-3.36,3.45-6,5.96-8.48,16.64-16.49,33.25-33.03,49.91-49.5,2-1.98,3.47-3.86,3.36-7.01-.14-3.95,2.38-6.11,6.34-6.22,2.37-.07,4.74-.01,7.11-.01Zm7.06,11.91c-4.62.17-9.19-1.36-10.3,4.55-.11.61-.98,1.09-1.51,1.62-3.98,3.96-7.96,7.91-11.94,11.86-13.9,13.78-27.78,27.58-41.71,41.34-2.46,2.43-4.27,5.22-3.1,8.63,1.64,4.79,5.27,8.15,9.87,10.04,4.17,1.71,7.02-1.12,9.73-3.83,17.57-17.51,35.16-35,52.75-52.48.96-.95,1.98-2.2,3.18-2.5,3-.75,3.49-2.61,3.2-5.24-.17-1.48.12-3-.05-4.48-.51-4.6,1.3-7.95,4.59-11.19,22.31-21.93,44.46-44.02,66.61-66.11,2.39-2.39,4.88-3.86,8.4-4.18,2.21-.2,4.89.35,6.72-2.24,5.81-8.25,11.81-16.36,17.85-24.43,1.3-1.74,1.34-2.73-.3-4.32-1.65-1.59-2.69-1.85-4.63-.41-7.51,5.56-15.04,11.1-22.82,16.26-2.91,1.93-4.01,4.21-3.92,7.39.1,3.6-1.33,6.35-3.9,8.89-22,21.72-43.99,43.45-65.78,65.38-3.98,4.01-7.93,6.75-12.94,5.45Z"/>
  <path class="cls-1" d="m91.67,201.29c-.23,46.57,33.33,86.16,76.8,95.53,3.5.75,6.62,1.87,6.98,6.01.36,4.18-3.53,6.68-8.44,5.59-10.24-2.29-20.05-5.75-29.23-10.87-31.08-17.36-50.24-43.68-56.16-78.59-9.64-56.88,25.58-110.32,81.72-124.5,58.64-14.82,119.23,19.82,132.61,82.37,1.04,4.85,1.82,9.78,1.91,14.78.08,4.02-2.09,6.7-5.69,6.89-3.28.17-5.42-2.32-5.72-6.43-3.13-43.6-34.05-78.28-75.07-87.11-47.94-10.32-93.38,14.97-111.55,56.52-5.55,12.69-8.33,25.95-8.17,39.81Z"/>
  <path class="cls-1" d="m174.79,151.65c5.17,5.14,9.71,9.66,14.26,14.18,2.55,2.53,4.27,5.42,4.63,9.1.49,5.06-1,9.31-4.61,12.87-4.53,4.47-8.99,9-13.55,13.44-6.63,6.46-15.3,6.53-21.98,0-4.62-4.5-8.97-9.28-14.05-14.58-1.09,5.75.03,10.12,1.51,14.38,6.91,19.79,28.01,30.04,48.01,23.22,4.05-1.38,6.96-.82,10.01,2.3,8.96,9.19,18.16,18.16,27.34,27.14,2.16,2.11,3.26,4.43,2.36,7.36-1.34,4.33-6.65,5.23-10.25,1.7-8.1-7.95-16.19-15.9-24.14-24.01-1.88-1.92-3.48-2.44-6.14-1.75-26.64,6.99-55.24-11.21-60.37-38.4-1.57-8.3-1.34-16.57,1.4-24.66,1.99-5.86,6.71-7.06,11.09-2.74,6.84,6.74,13.61,13.55,20.43,20.31,3.3,3.27,4.11,3.28,7.34.11,4-3.93,7.91-7.96,11.97-11.84,2.21-2.11,2.11-3.92-.01-6.01-6.93-6.82-13.8-13.7-20.68-20.57-1.89-1.89-3.67-3.94-2.83-6.86.65-2.26,2.21-3.73,4.55-4.54,28.53-9.9,60.44,9.54,64.81,39.35,1,6.79.78,13.41-.97,19.96-.53,1.98-.23,3.09,1.22,4.5,8.13,7.91,16.14,15.96,24.19,23.95,1.81,1.8,3.48,3.69,2.86,6.5-1.12,5.11-6.66,6.55-10.7,2.66-5.84-5.62-11.51-11.42-17.25-17.14-3.53-3.52-6.95-7.17-10.64-10.52-3.09-2.81-3.64-5.76-2.33-9.69,7.1-21.26-3.85-42.09-25.31-48.52-3.6-1.08-7.25-1.68-12.19-1.22Z"/>
  <path class="cls-1" d="m338.83,374.57c-4.77-.1-9.16-1.47-12.57-4.83-21.04-20.74-42.02-41.54-62.97-62.37-3.04-3.02-3.11-6.78-.53-9.23,2.57-2.45,6.29-1.98,9.54,1.25,19.89,19.76,39.78,39.52,59.66,59.28,5.37,5.34,8.99,5.4,14.3.18.62-.61,1.25-1.21,1.87-1.83,4.6-4.64,4.67-8.66.12-13.2-20.41-20.32-40.84-40.61-61.26-60.91-.27-.26-.55-.5-.82-.77-3.56-3.56-4.02-7.08-1.27-9.76,2.84-2.76,6.08-2.41,9.75,1.23,20.87,20.73,41.76,41.44,62.55,62.25,8.77,8.78,8.54,20.22-.14,29.2-5.05,5.22-10.32,9.85-18.24,9.51Z"/>
</svg>